<?xml version="1.0" encoding="UTF-8" standalone="no"?>
<!DOCTYPE svg PUBLIC "-//W3C//DTD SVG 1.1//EN" "http://www.w3.org/Graphics/SVG/1.1/DTD/svg11.dtd">
<svg width="100%" height="100%" viewBox="0 0 25 25" version="1.1" xmlns="http://www.w3.org/2000/svg" xmlns:xlink="http://www.w3.org/1999/xlink" xml:space="preserve" xmlns:serif="http://www.serif.com/" style="fill-rule:evenodd;clip-rule:evenodd;stroke-linejoin:round;stroke-miterlimit:2;">
    <path d="M12.5,0C19.399,0 25,5.601 25,12.5C25,19.399 19.399,25 12.5,25C5.601,25 0,19.399 0,12.5C0,5.601 5.601,0 12.5,0ZM9.847,16.675L9.847,15.337C10.419,15.791 11.065,16.018 11.785,16.018C12.37,16.018 12.837,15.885 13.187,15.62C13.537,15.354 13.712,14.994 13.712,14.54C13.712,13.542 12.949,13.043 11.423,13.043L10.742,13.043L10.742,11.902L11.393,11.902C12.746,11.902 13.423,11.431 13.423,10.491C13.423,9.624 12.896,9.19 11.84,9.19C11.252,9.19 10.697,9.401 10.178,9.822L10.178,8.558C10.775,8.223 11.481,8.055 12.294,8.055C13.076,8.055 13.701,8.252 14.172,8.644C14.642,9.037 14.877,9.54 14.877,10.153C14.877,11.311 14.288,12.055 13.11,12.387L13.11,12.411C13.744,12.472 14.245,12.694 14.613,13.077C14.982,13.459 15.166,13.937 15.166,14.509C15.166,15.299 14.869,15.936 14.276,16.42C13.683,16.905 12.902,17.147 11.933,17.147C11.061,17.147 10.366,16.99 9.847,16.675Z" style="fill:white;"/>
</svg>
