<?xml version="1.0" encoding="UTF-8" standalone="no"?>
<!DOCTYPE svg PUBLIC "-//W3C//DTD SVG 1.1//EN" "http://www.w3.org/Graphics/SVG/1.1/DTD/svg11.dtd">
<svg width="100%" height="100%" viewBox="0 0 521 189" version="1.1" xmlns="http://www.w3.org/2000/svg" xmlns:xlink="http://www.w3.org/1999/xlink" xml:space="preserve" xmlns:serif="http://www.serif.com/" style="fill-rule:evenodd;clip-rule:evenodd;stroke-linejoin:round;stroke-miterlimit:2;">
    <g>
        <g transform="matrix(1.03689,0,0,1.03689,-11.6106,-5.35955)">
            <path d="M158.423,60.824C160.525,57.116 162.501,52.667 155.829,48.837C149.155,45.004 102.569,17.695 96.142,13.743L95.895,13.866C92.928,12.382 86.873,9.538 81.191,13.246C75.505,16.955 32.131,42.41 24.346,46.983C16.562,51.557 18.908,57.609 22.862,59.958C26.819,62.305 37.816,68.98 41.276,71.325C44.734,73.675 47.824,76.516 44.859,81.584C41.892,86.652 22.616,120.26 18.662,126.688C14.706,133.114 16.686,138.303 21.505,141.269C26.322,144.235 73.036,171.173 78.596,174.388C84.157,177.601 89.592,178.834 94.907,175.991C100.221,173.149 147.921,144.977 153.852,141.391C159.783,137.808 156.941,131.877 154.345,130.269C151.75,128.664 138.527,120.014 133.461,116.802C128.396,113.588 128.89,111.486 131.607,106.668C134.222,102.032 156.322,64.531 158.423,60.824ZM45.861,66.106C43.409,64.796 34.372,59.512 32.068,58.078C27.744,55.39 29.114,51.237 32.091,49.723C35.068,48.21 65.55,30.792 69.14,29.133C72.176,27.731 75.106,30.2 73.003,34.056C71.675,36.494 58.124,59.429 55.65,63.632C53.182,67.833 49.881,68.252 45.861,66.106ZM33.688,115.346C34.987,112.891 48.251,89.789 50.671,85.556C53.089,81.326 56.384,80.865 60.432,82.96C62.899,84.242 72.001,89.415 74.321,90.82C78.678,93.454 77.36,97.621 74.404,99.174C71.447,100.721 41.18,118.516 37.613,120.219C34.593,121.661 31.635,119.225 33.688,115.346ZM84.63,161.988C84.367,166.436 80.848,168.493 74.449,164.652C68.049,160.805 35.951,142.642 31.929,140.415C27.906,138.187 25.783,134.561 31.286,131.485C36.788,128.411 71.474,108.41 76.426,105.372C81.377,102.331 84.926,103.832 84.871,110.022C84.803,118.225 84.891,157.541 84.63,161.988ZM84.853,80.729C84.98,84.065 82.019,87.281 77.568,84.815C75.193,83.499 66.176,78.177 63.843,76.675C60.008,74.208 58.767,71.119 61.235,66.916C63.702,62.711 77.139,39.709 78.622,37.361C80.966,33.651 84.552,35.004 84.804,38.34C85.1,42.283 84.726,77.392 84.853,80.729ZM91.818,28.199C91.694,22.393 94.781,20.085 100.096,23.256C107.14,27.46 141.12,47.23 144.828,49.701C148.535,52.174 148.535,56.251 141.986,59.834C135.436,63.419 103.554,81.954 99.602,84.302C95.647,86.651 91.445,86.651 91.569,80.347C91.693,74.043 91.941,34.006 91.818,28.199ZM91.818,151.278C91.525,147.334 91.941,112.228 91.818,108.892C91.694,105.554 94.66,102.343 99.109,104.813C101.478,106.131 110.491,111.464 112.825,112.97C116.654,115.442 117.89,118.532 115.421,122.733C112.948,126.935 99.483,149.921 97.996,152.266C95.648,155.974 92.065,154.614 91.818,151.278ZM130.793,123.562C133.242,124.873 142.274,130.17 144.574,131.607C148.896,134.301 147.522,138.452 144.543,139.962C141.562,141.471 111.059,158.849 107.469,160.505C104.431,161.904 101.503,159.429 103.609,155.577C104.94,153.139 118.518,130.223 120.996,126.022C123.473,121.825 126.774,121.41 130.793,123.562ZM126.008,104.104C123.583,108.333 120.287,108.79 116.241,106.688C113.778,105.403 104.681,100.221 102.36,98.813C98.009,96.175 99.33,92.007 102.289,90.461C105.25,88.915 135.538,71.157 139.106,69.456C142.126,68.02 145.085,70.458 143.028,74.335C141.724,76.789 128.433,99.875 126.008,104.104Z" style="fill:url(#_Linear1);fill-rule:nonzero;"/>
        </g>
        <g transform="matrix(1.03689,0,0,1.03689,-11.6106,-5.35955)">
            <path d="M182.373,65.406L233.884,65.406C233.884,65.406 184.137,121.572 182.532,123.178C180.928,124.782 180.928,127.189 180.928,127.189L180.928,131.522C180.928,132.486 180.928,133.928 184.297,133.928L246.721,133.928C249.288,133.928 250.253,132.804 250.253,131.682L250.253,125.906C250.253,124.623 249.61,123.74 248.087,123.74L197.296,123.74C197.296,123.74 246.562,67.813 248.006,65.889C249.45,63.963 250.246,63.128 250.246,61.201C250.246,59.276 250.216,58.504 250.216,57.22C250.216,55.936 249.716,54.494 247.525,54.494L188.309,54.494L182.373,65.406Z" style="fill:rgb(51,51,51);fill-rule:nonzero;"/>
            <path d="M265.642,54.478C267.57,54.478 270.955,54.495 272.078,54.495C273.943,54.495 274.566,55.298 274.566,56.982L274.566,112.586C274.566,115.956 276.882,125.545 287.525,125.545L310.752,125.545C317.248,125.545 323.732,121.214 323.732,112.566L323.732,56.902C323.732,55.298 324.422,54.815 325.717,54.815C327.01,54.815 330.651,54.805 332.737,54.805C333.479,54.805 334.824,54.976 334.824,56.903L334.824,109.539C334.824,120.129 328.97,135.152 310.356,135.152C291.741,135.152 298.556,135.053 287.964,135.053C273.752,135.053 263.091,124.944 263.091,108.414C263.091,91.885 263.107,58.858 263.107,57.092C263.106,55.327 264.36,54.478 265.642,54.478Z" style="fill:rgb(51,51,51);fill-rule:nonzero;"/>
            <path d="M415.778,135.151C413.852,135.151 410.465,135.132 409.34,135.132C407.473,135.132 406.854,134.33 406.854,132.646L406.854,77.041C406.854,73.671 404.535,64.082 393.895,64.082L370.666,64.082C364.171,64.082 357.687,68.417 357.687,77.062L357.687,132.726C357.687,134.33 356.995,134.811 355.701,134.811C354.406,134.811 350.766,134.822 348.68,134.822C347.939,134.822 346.596,134.652 346.596,132.726L346.596,80.09C346.596,69.5 352.448,54.478 371.064,54.478C389.678,54.478 382.861,54.574 393.453,54.574C407.668,54.574 418.327,64.684 418.327,81.215C418.327,97.743 418.313,130.771 418.313,132.535C418.313,134.3 417.06,135.151 415.778,135.151Z" style="fill:rgb(51,51,51);fill-rule:nonzero;"/>
            <path d="M497.535,61.52C491.896,55.596 483.569,53.199 475.812,53.199L458.036,53.199C454.51,53.199 441.245,54.043 434.333,65.05C427.424,76.052 428.834,89.454 428.834,93.686C428.834,97.919 427.451,116.636 438.849,127.12C445.903,133.609 454.93,134.034 460.01,134.034L494.152,134.034L500.357,124.3L459.729,124.3C451.265,124.3 440.263,118.375 440.263,106.383L440.263,98.061L498.382,98.061C502.473,98.061 504.448,96.649 504.448,93.546L504.448,81.697C504.448,77.603 503.18,67.446 497.535,61.52ZM493.866,86.632L440.668,86.632C440.668,86.632 440.731,84.924 440.731,80.832C440.731,71.178 447.874,64.061 458.994,64.061C467.884,64.061 460.449,64.166 476.813,64.166C490.059,64.166 493.867,75.277 493.867,79.552C493.866,81.525 493.866,86.632 493.866,86.632Z" style="fill:rgb(51,51,51);fill-rule:nonzero;"/>
        </g>
    </g>
    <defs>
        <linearGradient id="_Linear1" x1="0" y1="0" x2="1" y2="0" gradientUnits="userSpaceOnUse" gradientTransform="matrix(1.01744e-14,-166.161,166.161,1.01744e-14,88.4858,177.581)"><stop offset="0" style="stop-color:rgb(238,144,55);stop-opacity:1"/><stop offset="0.1" style="stop-color:rgb(238,142,62);stop-opacity:1"/><stop offset="0.26" style="stop-color:rgb(238,136,79);stop-opacity:1"/><stop offset="0.46" style="stop-color:rgb(236,125,99);stop-opacity:1"/><stop offset="0.69" style="stop-color:rgb(234,108,118);stop-opacity:1"/><stop offset="0.95" style="stop-color:rgb(230,85,138);stop-opacity:1"/><stop offset="1" style="stop-color:rgb(230,78,141);stop-opacity:1"/></linearGradient>
    </defs>
</svg>
