<?xml version="1.0" encoding="UTF-8" standalone="no"?>
<!DOCTYPE svg PUBLIC "-//W3C//DTD SVG 1.1//EN" "http://www.w3.org/Graphics/SVG/1.1/DTD/svg11.dtd">
<svg width="100%" height="100%" viewBox="0 0 189 189" version="1.1" xmlns="http://www.w3.org/2000/svg" xmlns:xlink="http://www.w3.org/1999/xlink" xml:space="preserve" xmlns:serif="http://www.serif.com/" style="fill-rule:evenodd;clip-rule:evenodd;stroke-linejoin:round;stroke-miterlimit:2;">
    <g transform="matrix(1.13745,0,0,1.13745,-6.14862,-12.9899)">
        <path d="M158.423,60.824C160.525,57.116 162.501,52.667 155.829,48.837C149.155,45.004 102.569,17.695 96.142,13.743L95.895,13.866C92.928,12.382 86.873,9.538 81.191,13.246C75.505,16.955 32.131,42.41 24.346,46.983C16.562,51.557 18.908,57.609 22.862,59.958C26.819,62.305 37.816,68.98 41.276,71.325C44.734,73.675 47.824,76.516 44.859,81.584C41.892,86.652 22.616,120.26 18.662,126.688C14.706,133.114 16.686,138.303 21.505,141.269C26.322,144.235 73.036,171.173 78.596,174.388C84.157,177.601 89.592,178.834 94.907,175.991C100.221,173.149 147.921,144.977 153.852,141.391C159.783,137.808 156.941,131.877 154.345,130.269C151.75,128.664 138.527,120.014 133.461,116.802C128.396,113.588 128.89,111.486 131.607,106.668C134.222,102.032 156.322,64.531 158.423,60.824ZM45.861,66.106C43.409,64.796 34.372,59.512 32.068,58.078C27.744,55.39 29.114,51.237 32.091,49.723C35.068,48.21 65.55,30.792 69.14,29.133C72.176,27.731 75.106,30.2 73.003,34.056C71.675,36.494 58.124,59.429 55.65,63.632C53.182,67.833 49.881,68.252 45.861,66.106ZM33.688,115.346C34.987,112.891 48.251,89.789 50.671,85.556C53.089,81.326 56.384,80.865 60.432,82.96C62.899,84.242 72.001,89.415 74.321,90.82C78.678,93.454 77.36,97.621 74.404,99.174C71.447,100.721 41.18,118.516 37.613,120.219C34.593,121.661 31.635,119.225 33.688,115.346ZM84.63,161.988C84.367,166.436 80.848,168.493 74.449,164.652C68.049,160.805 35.951,142.642 31.929,140.415C27.906,138.187 25.783,134.561 31.286,131.485C36.788,128.411 71.474,108.41 76.426,105.372C81.377,102.331 84.926,103.832 84.871,110.022C84.803,118.225 84.891,157.541 84.63,161.988ZM84.853,80.729C84.98,84.065 82.019,87.281 77.568,84.815C75.193,83.499 66.176,78.177 63.843,76.675C60.008,74.208 58.767,71.119 61.235,66.916C63.702,62.711 77.139,39.709 78.622,37.361C80.966,33.651 84.552,35.004 84.804,38.34C85.1,42.283 84.726,77.392 84.853,80.729ZM91.818,28.199C91.694,22.393 94.781,20.085 100.096,23.256C107.14,27.46 141.12,47.23 144.828,49.701C148.535,52.174 148.535,56.251 141.986,59.834C135.436,63.419 103.554,81.954 99.602,84.302C95.647,86.651 91.445,86.651 91.569,80.347C91.693,74.043 91.941,34.006 91.818,28.199ZM91.818,151.278C91.525,147.334 91.941,112.228 91.818,108.892C91.694,105.554 94.66,102.343 99.109,104.813C101.478,106.131 110.491,111.464 112.825,112.97C116.654,115.442 117.89,118.532 115.421,122.733C112.948,126.935 99.483,149.921 97.996,152.266C95.648,155.974 92.065,154.614 91.818,151.278ZM130.793,123.562C133.242,124.873 142.274,130.17 144.574,131.607C148.896,134.301 147.522,138.452 144.543,139.962C141.562,141.471 111.059,158.849 107.469,160.505C104.431,161.904 101.503,159.429 103.609,155.577C104.94,153.139 118.518,130.223 120.996,126.022C123.473,121.825 126.774,121.41 130.793,123.562ZM126.008,104.104C123.583,108.333 120.287,108.79 116.241,106.688C113.778,105.403 104.681,100.221 102.36,98.813C98.009,96.175 99.33,92.007 102.289,90.461C105.25,88.915 135.538,71.157 139.106,69.456C142.126,68.02 145.085,70.458 143.028,74.335C141.724,76.789 128.433,99.875 126.008,104.104Z" style="fill:url(#_Linear1);fill-rule:nonzero;"/>
    </g>
    <defs>
        <linearGradient id="_Linear1" x1="0" y1="0" x2="1" y2="0" gradientUnits="userSpaceOnUse" gradientTransform="matrix(1.01744e-14,-166.161,166.161,1.01744e-14,88.4858,177.581)"><stop offset="0" style="stop-color:rgb(238,144,55);stop-opacity:1"/><stop offset="0.1" style="stop-color:rgb(238,142,62);stop-opacity:1"/><stop offset="0.26" style="stop-color:rgb(238,136,79);stop-opacity:1"/><stop offset="0.46" style="stop-color:rgb(236,125,99);stop-opacity:1"/><stop offset="0.69" style="stop-color:rgb(234,108,118);stop-opacity:1"/><stop offset="0.95" style="stop-color:rgb(230,85,138);stop-opacity:1"/><stop offset="1" style="stop-color:rgb(230,78,141);stop-opacity:1"/></linearGradient>
    </defs>
</svg>
